<?xml version="1.0" standalone="no"?>
<!DOCTYPE svg PUBLIC "-//W3C//DTD SVG 20010904//EN"
 "http://www.w3.org/TR/2001/REC-SVG-20010904/DTD/svg10.dtd">
<svg version="1.0" xmlns="http://www.w3.org/2000/svg"
 width="1024.000000pt" height="1024.000000pt" viewBox="0 0 1024.000000 1024.000000"
 preserveAspectRatio="xMidYMid meet">

<g transform="translate(0.000000,1024.000000) scale(0.100000,-0.100000)"
fill="#000000" stroke="none">
<path d="M4790 10023 c-934 -70 -1833 -403 -2583 -956 -388 -285 -769 -666
-1054 -1054 -875 -1187 -1175 -2691 -823 -4120 183 -740 521 -1406 1018 -2003
125 -150 466 -490 612 -611 704 -583 1495 -947 2370 -1093 259 -43 412 -57
706 -63 300 -6 500 4 759 38 1360 180 2588 923 3392 2052 425 596 719 1301
843 2022 81 471 92 1017 29 1490 -146 1103 -656 2116 -1458 2898 -836 814
-1900 1299 -3066 1397 -109 9 -637 11 -745 3z m830 -188 c1133 -119 2152 -613
2947 -1429 1269 -1303 1687 -3180 1092 -4901 -521 -1508 -1811 -2686 -3364
-3070 -963 -238 -1988 -171 -2900 190 -151 60 -485 221 -630 305 -1481 853
-2406 2446 -2405 4145 1 1908 1142 3634 2908 4399 280 121 650 236 952 295
201 40 391 63 695 85 111 8 560 -4 705 -19z"/>
<path d="M4824 9460 c-75 -24 -152 -90 -183 -154 -69 -148 -35 -363 72 -450
61 -50 111 -67 208 -73 243 -15 390 107 406 338 11 151 -49 269 -165 326 -50
25 -70 28 -167 30 -88 2 -122 -1 -171 -17z m214 -45 c50 -21 79 -51 110 -110
34 -68 43 -231 17 -320 -50 -174 -253 -208 -357 -60 -57 81 -74 284 -33 382
43 102 160 150 263 108z"/>
<path d="M5483 9452 c-7 -17 6 -29 37 -34 22 -3 25 -8 28 -53 1 -27 -11 -156
-27 -285 -29 -223 -32 -236 -56 -255 -14 -12 -25 -23 -25 -27 0 -3 26 -9 58
-12 31 -4 122 -16 202 -26 80 -10 160 -20 179 -22 l34 -3 14 79 c7 43 11 81 9
84 -13 12 -33 -10 -44 -46 -7 -23 -20 -42 -30 -44 -17 -5 -224 11 -231 17 -5
6 60 515 69 541 8 19 17 24 45 24 28 0 35 4 35 19 0 16 -10 21 -57 26 -32 4
-98 12 -147 19 -74 10 -89 10 -93 -2z"/>
<path d="M4280 9404 c-41 -12 -85 -23 -97 -23 -16 -1 -23 -7 -23 -21 0 -17 7
-20 40 -20 36 0 42 -4 55 -32 19 -42 107 -369 101 -375 -6 -6 -227 144 -376
256 -63 47 -120 89 -125 93 -6 4 -40 -2 -76 -12 -35 -10 -76 -21 -91 -24 -19
-5 -28 -13 -28 -27 0 -17 5 -19 33 -14 17 3 37 2 44 -3 23 -15 158 -517 147
-546 -3 -9 -12 -16 -18 -16 -7 0 -21 -6 -32 -14 -14 -11 -16 -18 -8 -26 17
-17 216 38 212 59 -2 11 -15 16 -40 16 -20 0 -40 3 -44 8 -9 9 -125 429 -120
434 2 2 84 -54 182 -125 345 -247 360 -256 407 -253 23 1 43 3 45 5 1 2 -17
75 -42 162 -25 88 -61 221 -80 297 -39 149 -38 169 9 181 17 4 25 12 23 23 -4
23 -14 23 -98 -3z"/>
<path d="M6312 9265 c-132 -41 -220 -177 -229 -355 -5 -81 -3 -88 29 -150 59
-114 173 -179 329 -188 114 -6 170 12 244 80 87 79 144 224 132 331 -9 71 -50
150 -101 192 -107 88 -285 127 -404 90z m221 -57 c23 -7 60 -31 83 -53 55 -52
71 -122 54 -225 -12 -72 -55 -173 -96 -227 -91 -120 -279 -93 -339 49 -42 102
9 316 97 407 57 59 118 74 201 49z"/>
<path d="M3377 9119 c-65 -33 -77 -43 -72 -59 3 -10 1 -38 -5 -62 -22 -88
-104 -338 -110 -338 -4 0 -32 53 -63 117 -58 122 -61 144 -17 158 22 7 24 13
11 34 -7 11 -34 1 -132 -49 -142 -71 -142 -71 -134 -92 5 -13 11 -14 36 -5 20
8 35 8 45 2 17 -11 211 -377 241 -454 l17 -44 -27 -23 c-28 -24 -33 -39 -18
-48 12 -8 266 124 266 138 0 7 -17 10 -46 8 l-46 -3 -38 73 c-21 40 -49 93
-63 117 l-26 44 39 -7 c39 -8 320 -117 353 -137 15 -9 34 -3 102 31 101 50 92
44 84 63 -4 12 -14 15 -34 10 -21 -4 -82 16 -235 78 -114 45 -209 88 -211 94
-8 21 109 324 125 325 3 1 16 9 29 20 16 13 21 24 15 34 -7 11 -22 7 -86 -25z"/>
<path d="M7107 8886 c-95 -34 -167 -110 -208 -220 -64 -169 15 -348 197 -443
53 -28 226 -83 261 -83 7 0 25 24 39 53 42 82 63 107 90 107 49 0 20 27 -99
92 -105 57 -123 64 -131 50 -7 -12 -3 -20 15 -31 62 -41 63 -46 27 -112 -17
-34 -38 -64 -46 -67 -24 -9 -115 26 -155 59 -62 51 -82 100 -82 200 0 77 3 91
34 152 37 73 102 140 156 163 90 37 222 -1 301 -88 52 -57 59 -79 39 -118 -16
-31 -14 -60 3 -60 5 0 30 27 56 60 55 72 54 76 -34 149 -123 102 -238 151
-353 151 -40 -1 -89 -7 -110 -14z"/>
<path d="M2615 8686 c-22 -18 -105 -84 -185 -146 -80 -62 -146 -115 -147 -119
-2 -3 1 -12 6 -20 7 -11 13 -11 32 3 13 9 31 16 40 16 16 0 136 -144 298 -358
51 -67 62 -88 57 -108 -4 -14 -4 -29 -1 -34 3 -5 50 25 103 68 54 42 139 108
189 146 l91 69 -45 66 c-25 36 -49 67 -54 69 -17 7 -20 -27 -5 -57 9 -16 16
-37 16 -46 0 -18 -38 -55 -122 -121 l-57 -45 -81 102 c-44 56 -80 104 -80 108
0 8 85 73 117 90 20 10 26 8 45 -14 24 -28 27 -29 47 -16 10 7 0 27 -49 90
-60 77 -90 99 -90 66 0 -9 7 -26 15 -39 14 -21 13 -24 -13 -47 -15 -14 -46
-40 -69 -57 l-41 -32 -73 96 -74 96 30 25 c17 13 56 42 88 65 l59 40 28 -27
c19 -18 35 -25 45 -21 16 6 16 8 0 33 -10 14 -26 41 -37 60 -11 18 -25 33 -31
33 -7 0 -30 -15 -52 -34z"/>
<path d="M7851 8521 c-8 -14 -6 -23 9 -36 40 -36 40 -36 -198 -317 -79 -93
-132 -148 -144 -148 -10 0 -29 7 -42 15 -20 13 -25 13 -35 1 -9 -11 10 -32
104 -111 95 -79 119 -94 130 -85 13 11 11 17 -10 42 -20 24 -23 33 -14 49 12
24 245 304 307 372 49 52 57 55 83 31 18 -16 49 -13 49 4 0 5 -52 53 -115 106
-103 86 -115 94 -124 77z"/>
<path d="M4890 8423 c-298 -23 -635 -98 -920 -205 -450 -168 -848 -425 -1195
-773 -526 -525 -846 -1166 -956 -1915 -26 -178 -36 -529 -20 -721 81 -963 559
-1830 1329 -2412 471 -355 1009 -573 1617 -654 184 -24 620 -24 800 1 646 87
1196 320 1702 721 110 87 340 311 443 430 756 881 1002 2092 650 3200 -86 269
-232 574 -390 813 -572 870 -1486 1418 -2520 1512 -106 9 -434 11 -540 3z
m1364 -783 c36 -11 99 -43 140 -71 169 -113 256 -270 256 -465 0 -115 -2 -119
-53 -84 -85 57 -229 76 -320 41 l-28 -11 18 -31 c29 -50 35 -51 91 -14 28 19
53 35 55 35 11 0 57 -79 57 -98 0 -19 5 -22 41 -22 31 0 47 -6 70 -29 16 -16
29 -39 29 -50 0 -15 6 -21 23 -21 33 0 67 -27 67 -54 0 -16 10 -27 33 -37 18
-8 39 -28 47 -45 8 -17 27 -39 43 -47 40 -23 37 -77 -8 -167 -56 -112 -111
-164 -213 -206 l-56 -22 47 -23 c26 -13 47 -27 47 -32 0 -5 -19 -45 -42 -89
-45 -87 -127 -184 -186 -219 -20 -13 -39 -24 -40 -25 -2 -1 25 -36 60 -76 229
-263 329 -565 315 -951 -8 -228 -61 -405 -152 -506 -21 -23 -36 -43 -34 -44 2
-1 27 -13 54 -26 126 -58 236 -184 278 -316 34 -109 30 -241 -12 -365 -52
-152 -117 -236 -225 -286 -80 -37 -147 -47 -285 -41 -127 4 -162 12 -396 81
-177 53 -298 43 -419 -33 -101 -63 -167 -76 -228 -45 -55 28 -120 98 -148 157
l-28 57 -30 -54 c-36 -63 -89 -118 -150 -153 -35 -21 -52 -25 -96 -21 -59 5
-123 34 -175 81 -62 54 -116 72 -211 71 -70 0 -100 -6 -175 -33 -274 -100
-308 -110 -410 -117 -273 -17 -454 103 -515 340 -38 151 -21 328 45 462 57
117 133 181 244 205 l50 10 -45 61 c-87 119 -123 220 -149 416 -58 442 39 737
354 1074 l71 76 -53 30 c-67 38 -165 142 -211 225 -20 35 -36 66 -36 70 0 3
17 16 38 28 44 28 132 108 132 121 0 6 -17 30 -38 54 -50 56 -97 145 -117 219
-16 65 -20 208 -6 268 21 87 100 154 150 127 16 -8 28 -7 50 5 36 18 58 19 90
1 21 -12 30 -12 59 2 32 16 36 15 72 -5 33 -18 41 -19 51 -7 20 24 75 17 98
-12 12 -15 21 -34 21 -42 0 -13 2 -13 18 0 38 34 139 67 161 54 5 -3 3 -23 -3
-43 -8 -24 -10 -85 -8 -166 l4 -128 26 3 c26 3 27 6 34 77 8 98 24 152 65 233
72 140 209 244 415 316 47 17 109 43 137 57 50 25 52 25 84 9 17 -10 75 -34
128 -54 170 -64 335 -175 411 -275 52 -68 78 -142 91 -257 l11 -97 35 -5 c20
-3 66 -8 104 -12 l67 -6 0 31 c0 24 11 44 45 80 25 26 45 51 45 55 0 6 -236
300 -327 407 -11 14 -3 24 65 81 l79 66 67 -66 c64 -64 68 -66 81 -48 8 11 24
45 36 75 18 47 20 70 16 147 -3 49 -12 107 -21 127 l-15 37 38 0 c22 0 68 -9
105 -20z m-2264 -5 c54 -28 53 -106 -2 -130 -53 -22 -107 11 -107 65 0 37 32
70 77 79 2 1 16 -6 32 -14z m224 -16 c33 -26 36 -79 6 -109 -30 -30 -83 -27
-109 6 -34 43 -25 86 24 112 30 17 49 14 79 -9z m179 -91 c9 -11 17 -33 17
-49 0 -66 -88 -95 -129 -43 -24 30 -26 43 -10 78 22 48 86 56 122 14z m-559
-14 c39 -39 27 -103 -23 -124 -73 -30 -136 65 -81 120 24 24 82 27 104 4z
m651 -159 c14 -13 25 -36 25 -50 0 -35 -42 -75 -78 -75 -64 0 -95 79 -50 127
29 31 72 30 103 -2z m-761 -6 c51 -40 19 -129 -46 -129 -36 0 -78 40 -78 75 0
33 41 75 73 75 13 0 36 -9 51 -21z m774 -185 c28 -32 28 -56 -1 -90 -47 -54
-127 -25 -127 46 0 75 76 101 128 44z m-763 -9 c50 -49 20 -125 -49 -125 -57
0 -96 68 -63 111 33 43 78 49 112 14z m-149 -3979 c117 -59 269 -69 586 -40
127 11 254 14 478 12 283 -4 310 -6 372 -26 37 -13 80 -34 96 -47 37 -31 37
-31 74 0 16 13 59 34 96 47 62 20 90 22 362 26 224 3 341 0 487 -13 116 -11
239 -16 315 -13 164 7 218 26 369 137 18 13 19 11 13 -50 -24 -270 -80 -391
-214 -459 -94 -48 -125 -50 -621 -48 -418 3 -472 1 -544 -15 -141 -32 -237
-86 -277 -156 l-22 -39 -27 42 c-32 52 -103 98 -189 124 -125 38 -230 44 -650
36 l-395 -7 -94 32 c-213 72 -284 162 -326 411 -9 52 -19 106 -22 119 -6 24
-4 23 38 -11 24 -20 67 -48 95 -62z"/>
<path d="M6240 7493 c0 -117 -39 -225 -111 -307 -42 -47 -62 -56 -76 -32 -4 7
-31 39 -59 70 l-51 57 -23 -19 -23 -19 143 -176 c78 -98 146 -177 150 -177 4
0 14 8 23 18 16 17 14 23 -38 92 -39 52 -52 77 -45 85 17 21 125 65 187 76 65
12 152 5 214 -17 23 -7 43 -14 44 -14 2 0 -3 28 -11 62 -31 132 -122 246 -245
309 -32 16 -63 29 -69 29 -5 0 -10 -17 -10 -37z"/>
<path d="M5021 7183 c-52 -52 -73 -82 -91 -128 -28 -76 -48 -188 -51 -290 l-2
-80 46 -3 c61 -4 130 26 151 66 8 16 20 58 25 93 14 84 14 409 1 409 -6 0 -41
-30 -79 -67z"/>
<path d="M5222 7034 c3 -210 4 -221 28 -269 30 -59 60 -77 144 -83 l59 -5 -6
114 c-7 125 -25 214 -58 284 -26 54 -94 133 -139 159 l-32 18 4 -218z"/>
<path d="M5475 7111 c58 -80 77 -147 84 -296 l6 -130 83 -3 83 -3 -6 63 c-23
225 -68 304 -225 387 l-61 33 36 -51z"/>
<path d="M4819 7125 c-65 -34 -143 -108 -167 -157 -22 -48 -38 -121 -48 -221
l-6 -68 83 3 84 3 6 135 c7 149 24 213 79 289 35 47 32 49 -31 16z"/>
<path d="M3886 6945 c-12 -12 -16 -35 -16 -86 0 -78 11 -109 40 -109 30 0 41
34 38 111 -3 60 -6 74 -24 86 -19 12 -24 12 -38 -2z"/>
<path d="M4017 6942 c-20 -21 -24 -140 -7 -173 12 -21 40 -25 58 -7 19 19 16
163 -4 182 -20 20 -27 20 -47 -2z"/>
<path d="M4146 6944 c-18 -18 -22 -126 -6 -168 10 -28 38 -34 58 -14 19 19 16
163 -4 182 -8 9 -19 16 -24 16 -5 0 -16 -7 -24 -16z"/>
<path d="M3766 6927 c-9 -13 -19 -50 -22 -83 -5 -49 -3 -63 11 -78 10 -9 25
-16 34 -14 13 3 16 18 16 97 0 101 -11 122 -39 78z"/>
<path d="M4286 6878 c-8 -12 -21 -47 -27 -77 -7 -31 -21 -66 -32 -78 -26 -29
-77 -31 -102 -3 l-18 20 -19 -20 c-23 -24 -80 -27 -98 -5 -12 14 -15 14 -30 0
-27 -25 -80 -22 -102 5 -10 12 -18 17 -18 11 0 -17 -59 -43 -81 -36 -24 8 -23
3 13 -98 20 -56 106 -167 130 -167 6 0 33 21 62 46 117 106 280 204 340 204
l29 0 -6 83 c-4 45 -7 94 -7 110 0 33 -13 35 -34 5z"/>
<path d="M6260 6804 c-97 -94 -100 -98 -100 -141 0 -24 5 -54 12 -66 17 -33
180 -204 228 -239 38 -28 46 -30 99 -25 32 2 73 13 92 23 l34 17 -32 9 c-22 6
-35 16 -39 32 -4 17 -11 22 -24 19 -25 -7 -70 39 -70 72 0 20 -5 25 -25 25
-31 0 -75 41 -75 68 0 13 -9 22 -24 26 -38 9 -56 34 -56 77 0 33 8 48 50 94
32 35 50 64 50 80 0 14 -4 25 -10 25 -5 0 -55 -43 -110 -96z"/>
<path d="M6425 6799 c-59 -47 -76 -65 -73 -82 5 -39 40 -31 116 28 75 58 88
86 53 105 -17 8 -32 0 -96 -51z"/>
<path d="M6510 6705 c-70 -58 -86 -97 -43 -103 34 -5 165 103 161 131 -6 41
-47 31 -118 -28z"/>
<path d="M5120 6675 l-34 -35 37 -38 37 -37 35 35 35 36 -38 37 -38 37 -34
-35z"/>
<path d="M6620 6634 c-106 -83 -119 -103 -81 -124 16 -8 32 0 96 47 64 48 75
61 73 82 -4 38 -36 36 -88 -5z"/>
<path d="M5843 6444 c-1 -133 -8 -179 -48 -300 -6 -19 1 -23 72 -44 98 -29
253 -90 343 -135 l70 -35 63 31 c178 89 245 194 150 234 -74 31 -207 130 -317
236 -63 60 -129 116 -148 123 -19 8 -68 18 -109 22 l-75 6 -1 -138z"/>
<path d="M6681 6524 c-74 -58 -84 -76 -51 -94 44 -23 150 67 150 127 0 35 -22
28 -99 -33z"/>
<path d="M4315 6555 c-84 -24 -187 -82 -270 -155 -79 -69 -208 -170 -254 -201
-20 -12 -23 -20 -17 -43 14 -58 156 -181 242 -211 35 -12 40 -11 69 10 67 50
169 91 350 140 55 15 101 28 103 30 1 1 -6 24 -16 51 -27 67 -42 174 -42 293
l0 101 -57 -1 c-32 0 -80 -7 -108 -14z"/>
<path d="M4598 6564 c-13 -12 -8 -185 6 -255 8 -36 33 -104 56 -150 36 -71 59
-100 151 -189 65 -64 115 -122 126 -145 14 -33 18 -85 24 -285 3 -135 11 -260
17 -278 26 -79 84 -140 192 -200 70 -39 131 -61 303 -112 163 -47 226 -77 264
-125 l28 -35 103 0 c100 0 102 0 102 23 0 13 -7 44 -16 69 -37 111 -159 191
-319 209 -109 12 -155 24 -216 54 -110 56 -145 111 -161 251 -13 114 1 257 33
354 25 72 78 131 243 270 158 132 190 202 191 420 l0 125 -195 0 c-233 0 -277
-10 -337 -79 l-37 -43 -16 31 c-11 21 -36 41 -76 61 -59 30 -60 30 -259 33
-110 2 -203 0 -207 -4z m380 -160 c27 -18 52 -65 52 -95 0 -21 -3 -21 -104
-17 -113 4 -132 12 -162 70 -28 55 -24 58 89 58 77 0 108 -4 125 -16z m592 -4
c0 -37 -30 -81 -65 -96 -21 -9 -69 -14 -126 -14 l-91 0 5 30 c8 40 36 80 61
90 12 5 65 9 119 9 91 1 97 0 97 -19z"/>
<path d="M4505 6009 c-322 -65 -561 -233 -732 -515 -65 -106 -109 -220 -135
-344 -17 -79 -19 -116 -13 -225 10 -207 47 -362 113 -474 l27 -46 3 35 c2 19
8 40 13 46 6 7 3 23 -7 43 -17 34 -12 82 11 101 13 11 13 15 0 33 -23 33 -19
85 10 123 19 25 35 34 70 40 l45 6 0 74 0 74 129 0 128 0 7 128 c8 147 26 233
61 300 l25 47 -2 -245 -3 -245 35 17 c19 10 51 18 72 18 l38 0 0 -214 0 -215
113 113 c61 62 150 141 196 176 90 68 257 170 278 170 19 0 16 8 -12 42 -69
82 -94 178 -102 396 -3 89 -9 162 -12 162 -3 0 -33 -28 -68 -62 l-62 -61 -85
49 c-47 27 -86 53 -86 58 0 4 34 72 76 149 41 78 76 144 77 147 1 4 -25 31
-58 62 l-60 55 -90 -18z m57 -736 c25 -23 24 -84 -2 -108 -31 -28 -79 -24
-107 10 -27 30 -25 65 4 98 20 22 80 22 105 0z"/>
<path d="M5621 5934 c-72 -67 -82 -81 -76 -103 3 -14 33 -81 67 -149 47 -96
63 -120 74 -111 33 27 103 248 118 371 6 51 6 51 -65 63 -34 6 -40 3 -118 -71z"/>
<path d="M5887 5911 c-12 -111 -67 -254 -152 -397 l-19 -31 30 -48 c16 -27 34
-50 40 -52 15 -5 129 220 163 324 17 50 34 125 37 166 l7 75 -39 11 c-59 16
-61 15 -67 -48z"/>
<path d="M6066 5868 c-22 -192 -198 -556 -324 -670 l-39 -35 52 -17 c112 -35
210 -119 260 -221 l24 -50 2 135 c1 74 4 203 8 285 l6 150 19 -35 c37 -67 47
-138 53 -382 l6 -238 175 0 175 0 -7 -66 c-4 -37 -13 -79 -22 -95 -13 -26 -13
-32 2 -53 18 -28 21 -98 6 -136 -19 -48 -82 -90 -135 -90 -12 0 -38 9 -58 19
-32 17 -38 18 -51 4 -25 -24 -88 -27 -130 -5 -36 19 -37 19 -65 1 -36 -24 -78
-24 -117 0 -22 14 -36 17 -46 11 -8 -6 -25 -10 -37 -10 -77 0 65 -155 181
-199 119 -44 232 -22 376 74 171 114 256 280 282 552 14 143 1 332 -32 454
-73 279 -249 505 -501 647 l-56 32 -7 -62z"/>
<path d="M4716 5734 c-62 -112 -62 -107 -11 -136 17 -10 27 -3 82 58 35 38 63
78 63 90 0 26 -41 88 -60 91 -10 2 -36 -35 -74 -103z"/>
<path d="M5440 5787 c-33 -16 -55 -57 -47 -88 11 -41 85 -146 149 -209 54 -54
139 -110 167 -110 6 0 -16 41 -49 92 -33 50 -88 145 -122 210 -35 64 -65 118
-68 118 -3 0 -16 -6 -30 -13z"/>
<path d="M5345 5610 c-3 -5 -9 -56 -12 -112 -6 -120 5 -174 46 -220 l28 -31
34 23 c19 13 55 43 81 68 l47 45 -74 69 c-40 37 -87 91 -105 118 -35 54 -36
55 -45 40z"/>
<path d="M5603 5325 c-13 -19 -45 -51 -73 -72 -55 -41 -53 -45 21 -62 42 -10
46 -8 94 29 55 42 111 98 104 103 -2 2 -24 8 -49 14 -25 6 -52 13 -60 17 -10
4 -22 -6 -37 -29z"/>
<path d="M4990 4956 c-180 -79 -322 -178 -445 -307 -129 -139 -225 -303 -254
-438 -18 -83 -15 -99 22 -121 39 -24 67 -26 67 -4 0 31 72 198 126 295 127
228 264 349 587 519 l91 49 -48 20 c-26 12 -53 21 -59 21 -7 0 -46 -15 -87
-34z"/>
<path d="M3990 4880 l0 -41 58 3 57 3 0 35 0 35 -57 3 -58 3 0 -41z"/>
<path d="M5168 4848 c-250 -131 -355 -202 -476 -320 -80 -78 -146 -170 -162
-226 -6 -20 -18 -81 -27 -135 -19 -114 -18 -117 60 -117 51 0 91 16 147 61
112 89 254 94 344 11 28 -26 86 -134 86 -159 0 -27 17 -11 30 26 18 55 59 102
131 150 55 37 67 41 123 41 75 0 125 -22 188 -82 47 -45 100 -68 156 -68 35 0
159 37 167 50 3 5 -19 25 -50 45 -125 83 -242 248 -253 354 -3 40 1 58 23 100
25 45 27 57 22 111 -4 34 -11 70 -17 80 -15 29 -78 58 -227 105 l-132 42 -133
-69z m38 -351 c70 -60 -5 -160 -87 -116 -45 24 -42 105 4 127 34 17 54 14 83
-11z"/>
<path d="M4265 4827 c-27 -27 -34 -44 -40 -90 -4 -31 -13 -64 -20 -74 -10 -14
-10 -21 2 -40 11 -16 13 -36 9 -65 -8 -55 -8 -65 0 -111 5 -30 2 -45 -13 -65
-19 -26 -19 -28 -2 -46 10 -10 19 -30 21 -45 3 -24 6 -21 36 29 54 91 65 147
62 295 -2 72 -4 156 -4 188 -1 31 -5 57 -9 57 -5 0 -24 -15 -42 -33z"/>
<path d="M3863 4744 c-21 -9 -15 -52 9 -68 17 -12 49 -16 135 -16 124 0 147
10 141 59 l-3 26 -135 2 c-74 1 -141 -1 -147 -3z"/>
<path d="M5770 4673 c0 -26 12 -39 40 -48 14 -4 34 -16 46 -26 20 -19 21 -19
39 1 27 30 78 36 124 13 34 -17 43 -18 63 -7 30 17 119 18 143 1 15 -12 21
-11 37 5 16 16 45 24 72 19 15 -3 36 21 36 40 0 18 -13 19 -300 19 -279 0
-300 -1 -300 -17z"/>
<path d="M3862 4598 c-17 -17 -15 -42 6 -61 15 -14 41 -17 138 -17 126 0 144
6 144 45 0 40 -18 45 -150 45 -85 0 -130 -4 -138 -12z"/>
<path d="M5729 4542 c-47 -39 -16 -122 47 -122 57 0 85 80 42 120 -27 25 -59
26 -89 2z"/>
<path d="M5920 4540 c-41 -41 -12 -120 44 -120 38 0 69 32 69 70 0 61 -71 92
-113 50z"/>
<path d="M6109 4542 c-47 -39 -16 -122 47 -122 57 0 85 80 42 120 -27 25 -59
26 -89 2z"/>
<path d="M6295 4535 c-14 -13 -25 -33 -25 -45 0 -28 43 -70 73 -70 31 0 67 39
67 72 0 30 -41 68 -72 68 -10 0 -30 -11 -43 -25z"/>
<path d="M3862 4458 c-17 -17 -15 -42 6 -61 15 -14 41 -17 138 -17 126 0 144
6 144 45 0 40 -18 45 -150 45 -85 0 -130 -4 -138 -12z"/>
<path d="M3868 4323 c-26 -7 -33 -41 -12 -64 15 -17 31 -19 146 -19 l128 0 11
26 c7 21 6 31 -7 45 -15 17 -32 19 -133 18 -64 -1 -124 -3 -133 -6z"/>
<path d="M6454 4179 c-43 -45 -157 -97 -244 -110 -53 -9 -91 -22 -130 -45 -30
-18 -86 -46 -125 -61 -61 -23 -85 -27 -180 -27 -103 -1 -113 1 -157 27 -45 26
-48 27 -67 11 -18 -16 -18 -20 -5 -38 18 -26 18 -95 -1 -120 -12 -16 -12 -22
0 -47 20 -37 19 -99 -1 -127 -14 -21 -14 -26 0 -56 21 -44 20 -64 -3 -106 -18
-34 -18 -36 -1 -58 l18 -22 59 28 c54 25 67 27 183 26 116 0 133 -3 240 -37
222 -72 297 -89 390 -85 73 3 96 8 152 36 216 106 294 402 171 645 -33 66
-103 134 -166 162 -87 38 -100 39 -133 4z"/>
<path d="M3703 4154 c-201 -72 -291 -427 -166 -657 68 -123 195 -176 359 -148
38 7 137 34 219 61 210 68 262 80 354 80 93 0 154 -18 226 -66 46 -30 50 -32
57 -15 4 11 11 22 17 26 8 4 5 15 -9 32 -25 33 -26 88 -1 129 17 27 17 33 5
46 -24 24 -28 81 -9 121 15 33 16 38 1 59 -20 28 -20 70 -2 106 13 24 12 30
-4 50 -18 21 -21 22 -47 9 -116 -59 -313 -44 -495 37 -16 7 -18 0 -18 -78 0
-103 -6 -106 -98 -47 -71 46 -130 117 -162 195 -21 50 -27 55 -66 65 -57 15
-110 13 -161 -5z"/>
<path d="M4024 4098 c7 -36 53 -109 74 -116 9 -3 12 16 12 72 l0 76 -46 0 -46
0 6 -32z"/>
<path d="M4826 4088 c-20 -29 -20 -58 0 -86 35 -50 138 -1 119 57 -17 54 -90
71 -119 29z"/>
<path d="M5380 4090 c-42 -42 -11 -113 49 -113 59 0 88 59 51 106 -26 33 -71
36 -100 7z"/>
<path d="M4996 3998 c-8 -39 -8 -47 0 -111 4 -35 2 -54 -10 -72 -15 -23 -15
-28 -1 -47 19 -28 19 -90 1 -126 -12 -24 -12 -30 0 -47 18 -25 18 -79 -1 -115
-14 -27 -14 -33 3 -66 l18 -36 27 59 c64 143 63 424 -2 552 -12 23 -23 41 -25
41 -2 0 -7 -15 -10 -32z"/>
<path d="M5262 3989 c-34 -72 -46 -145 -46 -269 0 -128 12 -196 51 -283 l27
-59 14 36 c13 32 12 40 -2 70 -20 42 -20 69 -1 106 13 25 13 32 0 57 -8 15
-15 42 -15 58 0 17 7 43 15 58 13 25 13 32 0 57 -18 35 -19 83 -3 110 9 14 9
24 1 42 -7 13 -14 32 -16 43 -3 15 -9 10 -25 -26z"/>
<path d="M4836 3929 c-33 -26 -34 -68 -3 -97 13 -12 33 -22 46 -22 28 0 71 42
71 70 0 26 -43 70 -68 70 -11 0 -31 -9 -46 -21z"/>
<path d="M5381 3921 c-35 -35 -19 -101 27 -113 32 -9 79 17 86 48 16 62 -68
110 -113 65z"/>
<path d="M4830 3750 c-27 -27 -25 -66 6 -96 59 -60 146 23 94 89 -26 33 -71
36 -100 7z"/>
<path d="M5376 3748 c-20 -29 -20 -58 0 -86 35 -50 138 -1 119 57 -17 54 -90
71 -119 29z"/>
<path d="M4832 3577 c-12 -13 -22 -35 -22 -48 0 -31 38 -69 69 -69 28 0 71 42
71 70 0 28 -43 70 -73 70 -13 0 -33 -10 -45 -23z"/>
<path d="M5381 3581 c-23 -23 -27 -52 -10 -82 25 -47 98 -40 120 12 10 26 9
34 -8 57 -26 35 -74 41 -102 13z"/>
<path d="M4860 3423 c-56 -20 -51 -100 7 -118 17 -4 29 1 48 19 31 31 32 50 0
81 -25 26 -29 27 -55 18z"/>
<path d="M5387 3412 c-35 -39 -9 -102 41 -102 28 0 62 34 62 60 0 27 -35 60
-63 60 -13 0 -31 -8 -40 -18z"/>
<path d="M3571 3038 c14 -62 54 -125 99 -154 81 -54 98 -56 615 -64 487 -9
568 -14 687 -50 59 -18 153 -77 173 -110 4 -6 25 6 53 31 56 49 80 62 152 83
109 31 203 38 670 46 511 8 541 11 619 63 46 30 85 92 100 155 8 39 7 43 -7
36 -10 -4 -42 -16 -72 -28 -62 -23 -110 -24 -810 -16 -337 4 -394 3 -458 -12
-101 -24 -174 -59 -208 -101 l-28 -36 -33 38 c-37 43 -103 75 -207 99 -62 15
-123 16 -461 12 -697 -8 -743 -7 -805 16 -30 12 -62 24 -72 28 -14 7 -15 3 -7
-36z"/>
<path d="M1947 8100 l-207 -219 56 -48 c30 -26 60 -48 66 -48 22 0 18 23 -7
54 -33 39 -29 53 39 120 l54 53 196 -192 c108 -106 196 -201 196 -210 0 -10
-7 -23 -15 -30 -18 -15 -19 -36 -3 -46 7 -4 52 35 115 101 82 85 101 110 92
121 -9 11 -16 10 -41 -8 -27 -19 -33 -20 -53 -7 -13 8 -107 95 -210 193 l-186
179 58 59 c31 32 64 58 72 58 8 0 29 -11 47 -25 28 -22 33 -23 45 -9 10 13 4
24 -42 70 -29 29 -56 54 -59 53 -3 0 -98 -99 -213 -219z"/>
<path d="M8384 8016 c-3 -8 2 -26 12 -41 16 -25 16 -27 -7 -51 -26 -28 -227
-194 -347 -287 -62 -48 -78 -55 -103 -50 -16 3 -29 1 -29 -4 0 -12 127 -172
184 -232 80 -84 194 -108 280 -57 80 47 104 118 67 201 -11 26 -21 49 -21 50
0 1 21 -8 47 -21 53 -27 90 -30 136 -10 56 23 82 61 81 115 -1 56 -22 95 -104
191 -31 36 -82 98 -114 138 -59 74 -72 83 -82 58z m187 -278 c25 -59 -46 -138
-123 -138 -29 0 -46 8 -78 38 -22 22 -40 43 -40 48 1 5 40 40 88 77 l86 68 28
-33 c15 -18 32 -45 39 -60z m-248 -130 c51 -79 48 -121 -14 -180 -44 -42 -104
-64 -145 -54 -16 4 -46 26 -67 48 l-39 41 24 24 c41 40 192 162 203 162 6 1
23 -18 38 -41z"/>
<path d="M1400 7382 c-46 -81 -114 -198 -152 -261 -37 -63 -68 -116 -68 -117
0 -8 133 -73 141 -69 17 11 9 31 -21 53 -16 13 -30 29 -30 38 0 18 71 144 82
144 13 0 442 -251 462 -270 17 -16 17 -22 7 -49 -13 -31 -8 -51 12 -51 7 0 31
35 54 78 24 42 57 101 74 129 27 47 29 54 14 59 -11 5 -25 -2 -41 -20 -14 -14
-28 -26 -32 -26 -6 0 -402 226 -471 269 -11 6 -5 23 28 80 45 76 58 83 110 56
16 -8 31 -11 35 -8 19 20 -4 42 -110 106 -7 4 -43 -49 -94 -141z"/>
<path d="M8735 7120 c-402 -46 -370 -45 -399 -13 -20 22 -28 25 -38 15 -10
-10 -3 -31 36 -105 59 -111 52 -102 71 -87 11 9 12 17 5 30 -25 48 -5 65 86
75 l60 7 56 -108 57 -109 -52 -58 c-29 -32 -57 -57 -63 -57 -6 0 -17 11 -24
25 -13 25 -34 33 -44 16 -10 -16 127 -261 144 -258 11 2 14 13 12 38 -3 32 6
47 85 145 364 450 336 412 323 444 -15 36 2 36 -315 0z m135 -46 c0 -11 -152
-189 -162 -189 -14 0 -100 165 -86 166 7 0 58 6 113 13 123 17 135 18 135 10z"/>
<path d="M1096 6828 c-3 -7 -19 -53 -35 -103 -17 -49 -31 -91 -31 -92 0 -2 9
-3 20 -3 12 0 26 12 35 30 9 17 23 30 33 30 28 0 331 -104 389 -134 32 -16 59
-38 68 -56 24 -46 19 -118 -12 -180 -36 -69 -71 -95 -127 -93 -48 2 -368 105
-416 134 -27 17 -30 23 -25 53 5 25 3 35 -10 39 -8 4 -18 1 -20 -6 -3 -6 -22
-64 -44 -127 -22 -63 -42 -122 -46 -131 -4 -11 0 -18 14 -22 15 -3 22 2 31 24
19 44 25 43 234 -27 238 -80 271 -88 323 -73 81 22 152 126 183 266 16 68 -3
145 -46 192 -44 49 -85 69 -279 137 -195 68 -207 75 -203 117 2 24 -1 33 -15
35 -9 2 -19 -2 -21 -10z"/>
<path d="M9253 6577 c6 -41 0 -53 -37 -67 -35 -13 -430 -126 -472 -135 -33 -6
-64 13 -64 40 0 19 -13 25 -29 15 -11 -6 -8 -27 15 -109 23 -83 31 -101 47
-101 16 0 18 5 13 33 -7 38 0 49 39 65 39 16 405 120 405 116 0 -2 -66 -98
-146 -215 -230 -333 -233 -339 -227 -389 5 -32 10 -41 22 -37 9 3 102 30 206
61 256 77 372 106 389 100 8 -3 19 -19 25 -36 8 -22 15 -29 27 -24 8 3 17 6
18 6 2 0 -11 47 -28 105 -23 80 -34 105 -46 103 -9 -2 -15 -15 -16 -33 0 -17
-1 -35 -2 -42 -1 -6 -37 -23 -79 -37 -108 -35 -326 -96 -330 -93 -4 5 239 365
303 449 l51 67 -23 82 c-13 45 -24 88 -24 95 0 8 -10 14 -21 14 -19 0 -21 -4
-16 -33z"/>
<path d="M797 5738 c-21 -150 -41 -285 -44 -300 -5 -25 -3 -27 43 -33 27 -3
64 -8 82 -11 27 -4 32 -2 32 15 0 15 -10 23 -41 31 -22 6 -42 17 -45 25 -6 14
13 155 21 164 8 8 529 -70 542 -81 7 -6 13 -26 13 -44 0 -27 4 -34 20 -34 11
0 20 3 20 8 0 4 9 68 20 142 24 163 24 150 1 150 -12 0 -21 -11 -27 -32 -8
-27 -15 -34 -40 -36 -28 -3 -523 64 -531 71 -7 7 19 152 29 165 6 6 30 12 55
12 36 0 44 3 41 17 -2 12 -21 20 -68 29 -36 7 -70 13 -75 13 -6 1 -27 -119
-48 -271z"/>
<path d="M9468 5678 c-2 -23 -10 -36 -28 -45 -14 -6 -141 -22 -283 -34 l-258
-22 -24 23 c-14 13 -27 21 -31 18 -9 -9 16 -296 32 -375 37 -179 172 -288 354
-288 113 0 170 18 229 71 88 79 100 149 71 417 -11 104 -20 206 -20 228 0 32
-4 39 -19 39 -15 0 -21 -8 -23 -32z m9 -225 c4 -16 7 -66 7 -113 0 -93 -11
-125 -61 -171 -116 -108 -379 -97 -462 20 -27 37 -51 131 -51 198 0 48 2 53
23 54 12 0 105 9 207 19 102 10 218 18 257 19 71 1 73 0 80 -26z"/>
<path d="M745 5278 c-2 -7 -5 -77 -8 -155 -3 -132 -2 -143 14 -143 13 0 20 11
25 35 5 27 12 37 32 42 46 11 529 -12 546 -27 9 -7 16 -25 16 -41 0 -22 5 -29
20 -29 19 0 20 7 20 104 0 57 3 124 6 150 6 41 5 46 -13 46 -14 0 -23 -10 -30
-32 l-9 -33 -273 2 c-243 1 -275 3 -292 19 -10 9 -19 30 -19 46 0 29 -26 41
-35 16z"/>
<path d="M786 4833 l-48 -4 6 -32 c10 -57 66 -519 66 -549 0 -25 3 -28 25 -22
14 3 49 9 78 13 43 5 52 9 52 26 0 17 -6 19 -35 17 -19 -1 -41 2 -49 7 -14 9
-29 79 -30 142 l-1 36 143 17 c396 47 399 47 413 35 8 -6 14 -21 14 -34 0 -27
7 -34 28 -28 16 4 16 13 -1 151 -10 81 -20 148 -22 151 -12 11 -35 -12 -35
-36 0 -44 -10 -50 -90 -62 -199 -31 -465 -59 -471 -49 -9 15 -21 157 -14 168
3 6 24 13 46 16 29 5 39 11 39 25 0 20 -2 20 -114 12z"/>
<path d="M8932 4723 c-72 -35 -122 -140 -129 -273 -5 -79 -3 -89 24 -140 24
-45 38 -60 83 -83 30 -15 89 -34 130 -42 41 -8 133 -25 204 -39 71 -14 133
-30 137 -38 5 -7 9 -25 9 -40 0 -21 5 -28 20 -28 11 0 20 6 20 13 1 6 7 48 15
92 8 44 15 88 15 98 0 30 -29 18 -44 -18 -19 -44 -20 -44 -246 -5 -256 45
-290 68 -290 192 1 115 53 188 136 188 51 0 377 -54 417 -69 22 -9 27 -16 27
-46 0 -23 6 -38 15 -42 9 -3 17 -4 19 -2 2 2 14 60 26 129 11 69 24 135 27
148 4 17 1 22 -16 22 -14 0 -23 -8 -27 -25 -12 -47 -19 -47 -240 -10 -234 39
-284 42 -332 18z"/>
<path d="M1310 4189 c-50 -10 -83 -31 -114 -73 -19 -25 -21 -40 -18 -166 2
-132 2 -139 -21 -165 -17 -20 -35 -28 -70 -32 -43 -5 -49 -3 -81 29 -40 40
-61 105 -51 157 8 45 29 68 66 76 20 5 29 13 29 26 0 22 -3 22 -90 5 l-65 -12
1 -80 c1 -180 91 -304 220 -304 68 0 118 18 156 57 l33 34 0 138 c0 113 3 141
17 163 35 53 138 56 185 6 31 -33 43 -71 43 -136 0 -72 -25 -117 -70 -127 -29
-6 -49 -29 -37 -41 2 -3 41 1 86 8 81 12 81 12 87 46 10 52 -2 152 -27 217
-47 127 -159 197 -279 174z"/>
<path d="M8717 3994 c-20 -53 -34 -100 -31 -105 10 -17 29 -8 47 22 15 27 21
30 45 24 33 -8 394 -143 401 -150 7 -8 2 -10 -149 -60 -80 -26 -222 -74 -316
-107 -165 -57 -171 -60 -188 -95 -9 -19 -16 -37 -14 -38 2 -1 102 -40 223 -85
121 -45 253 -98 293 -116 l74 -34 -7 -41 c-6 -35 -5 -40 10 -37 17 3 97 185
88 201 -10 16 -33 5 -48 -23 -9 -16 -22 -30 -30 -30 -32 0 -395 144 -386 153
10 10 426 152 526 180 l60 17 33 87 c37 101 37 99 17 107 -10 3 -20 -5 -30
-24 -11 -21 -23 -30 -40 -30 -26 0 -456 162 -494 187 -20 13 -22 20 -17 54 5
33 4 39 -12 39 -14 0 -27 -23 -55 -96z"/>
<path d="M1623 3587 c-40 -23 -163 -87 -273 -142 l-201 -100 -27 32 c-20 24
-31 30 -41 24 -12 -8 -6 -26 35 -105 33 -65 54 -95 64 -93 9 2 14 11 12 22
-12 69 -20 62 178 166 102 54 186 94 188 90 4 -13 -154 -383 -217 -509 l-31
-61 47 -89 c52 -101 74 -112 70 -33 l-2 46 248 125 248 125 27 -32 c19 -23 31
-30 41 -24 11 7 4 28 -35 105 -27 53 -54 96 -61 96 -19 0 -25 -18 -13 -40 22
-41 3 -56 -198 -159 -108 -55 -198 -99 -199 -97 -2 2 37 95 86 207 171 392
174 401 161 448 -6 22 -16 41 -23 40 -7 0 -44 -20 -84 -42z"/>
<path d="M8477 3210 c-150 -38 -271 -179 -328 -385 -20 -75 -20 -80 -4 -90
104 -61 134 -85 137 -111 2 -15 8 -29 13 -31 6 -1 43 52 84 118 58 95 71 123
60 130 -10 6 -25 -4 -51 -33 l-38 -40 -27 17 c-105 69 -103 66 -96 94 9 38 38
94 68 129 66 79 204 98 320 43 35 -16 84 -48 109 -71 121 -112 116 -272 -14
-394 -59 -55 -90 -65 -138 -42 -25 12 -38 14 -46 6 -8 -8 4 -24 44 -60 30 -27
62 -49 71 -50 9 0 46 31 81 68 206 219 235 452 73 601 -87 80 -224 124 -318
101z"/>
<path d="M2043 2973 c-9 -3 -8 -13 4 -38 14 -29 14 -36 3 -51 -24 -27 -435
-314 -452 -314 -5 0 -20 12 -34 27 -21 23 -27 25 -38 12 -12 -12 -1 -32 73
-136 69 -99 88 -120 98 -110 10 10 10 19 1 44 -16 42 -12 45 147 158 293 208
305 214 340 175 21 -23 34 -25 41 -7 5 13 -148 240 -164 244 -4 1 -12 -1 -19
-4z"/>
<path d="M2530 2123 c-103 -39 -143 -180 -76 -267 114 -150 354 -38 307 144
-13 48 -49 93 -93 116 -27 14 -109 18 -138 7z"/>
<path d="M7605 2107 c-46 -25 -85 -92 -85 -144 0 -41 24 -100 52 -131 33 -34
112 -54 162 -41 58 16 91 42 116 95 74 151 -96 305 -245 221z"/>
<path d="M6163 1443 c-56 -19 -108 -80 -123 -145 -32 -130 51 -415 144 -496
31 -27 89 -52 122 -52 31 0 117 34 145 57 71 60 88 182 48 341 -41 163 -88
253 -153 293 -38 23 -122 24 -183 2z m106 -81 c41 -43 89 -157 127 -300 42
-165 28 -245 -45 -245 -61 0 -108 69 -166 247 -39 119 -60 233 -51 270 8 34
44 66 74 66 16 0 38 -14 61 -38z"/>
<path d="M4004 1433 l-132 -4 -7 -35 c-3 -20 -5 -37 -3 -39 3 -3 28 1 141 20
21 4 27 1 27 -14 0 -28 -118 -438 -136 -473 -16 -30 -16 -31 -80 -24 -59 6
-64 5 -64 -13 0 -15 14 -22 73 -37 39 -9 121 -32 182 -50 60 -18 113 -30 117
-28 19 12 5 32 -32 44 -54 18 -64 32 -55 77 9 50 109 398 141 489 31 91 31 94
-8 92 -18 -1 -92 -4 -164 -5z"/>
<path d="M4691 1316 c-49 -18 -107 -79 -125 -133 -24 -70 -21 -169 7 -217 45
-79 140 -99 218 -46 39 26 44 27 47 11 4 -26 -34 -123 -68 -170 -39 -54 -94
-81 -165 -81 -59 0 -66 -7 -35 -35 16 -14 30 -17 77 -12 126 13 259 116 303
234 62 166 51 325 -29 404 -55 55 -150 74 -230 45z m113 -47 c37 -17 56 -67
56 -143 0 -116 -39 -165 -116 -144 -51 13 -69 51 -68 138 1 128 50 184 128
149z"/>
<path d="M5406 1300 c-81 -32 -86 -40 -86 -142 0 -80 2 -89 17 -86 12 2 20 16
24 41 12 73 90 116 159 87 41 -17 60 -57 60 -126 0 -85 -27 -134 -177 -320
-51 -64 -73 -99 -73 -119 0 -26 1 -27 43 -21 44 6 206 21 339 32 l76 6 -5 56
c-3 31 -7 59 -9 60 -1 2 -65 -3 -142 -12 -76 -9 -146 -16 -156 -16 -10 0 19
41 84 118 129 150 154 198 148 290 -4 81 -31 125 -92 153 -54 24 -146 24 -210
-1z"/>
</g>
</svg>
